<svg xmlns="http://www.w3.org/2000/svg" viewBox="0 0 375.07952880859375 240.74659729003906" height="240.74659729003906" width="375.07952880859375"><g><svg></svg></g><g><svg viewBox="0 0 375.07952880859375 240.74659729003906" height="240.74659729003906" width="375.07952880859375"><g transform="matrix(1,0,0,1,-10.220239639282227,-6.453399658203125)"><path xmlns="http://www.w3.org/2000/svg" d="M10.22 240.747v-234.294h375.08v234.294h-17.711v-3.874h13.837v-226.546h-367.332v226.546l20.662 0 0 3.874z" fill="#ffffff" fill-rule="nonzero" stroke="none" stroke-width="1" stroke-linecap="butt" stroke-linejoin="miter" stroke-miterlimit="10" stroke-dasharray="" stroke-dashoffset="0" font-family="none" font-weight="none" font-size="none" text-anchor="none" style="mix-blend-mode: normal" data-fill-palette-color="tertiary"></path><g><path xmlns="http://www.w3.org/2000/svg" d="M60.715 233.639v0c0.104 0 0.176 0.033 0.215 0.098 0.039 0.065 0.039 0.143 0 0.234v0l-3.044 9.736c-0.026 0.104-0.068 0.176-0.125 0.215-0.06 0.039-0.148 0.059-0.265 0.058v0h-1.132c-0.234 0-0.384-0.098-0.449-0.292v0l-2.107-6.693c-0.052-0.117-0.1-0.176-0.144-0.176-0.047 0-0.083 0.059-0.11 0.176v0l-2.048 6.712c-0.026 0.104-0.068 0.176-0.125 0.215-0.06 0.039-0.142 0.059-0.246 0.058v0h-1.21c-0.234 0-0.377-0.098-0.429-0.292v0l-3.103-9.698c-0.026-0.104-0.02-0.189 0.02-0.253 0.039-0.065 0.111-0.098 0.215-0.098v0h1.522c0.078 0 0.15 0.022 0.214 0.066 0.065 0.047 0.111 0.109 0.137 0.188v0l2.146 6.946c0.026 0.117 0.069 0.176 0.129 0.176 0.057 0 0.105-0.065 0.144-0.195v0l2.108-6.947c0.026-0.078 0.065-0.137 0.117-0.175 0.052-0.039 0.124-0.059 0.214-0.059v0h1.132c0.078 0 0.15 0.022 0.215 0.066 0.065 0.047 0.104 0.109 0.117 0.188v0l2.185 6.946c0.039 0.117 0.085 0.176 0.137 0.176 0.052 0 0.098-0.065 0.136-0.195v0l2.069-6.947c0.039-0.065 0.087-0.121 0.144-0.168 0.06-0.044 0.135-0.066 0.226-0.066v0zM78.714 239.532v0c0 0.585 0.139 1.115 0.417 1.588 0.281 0.476 0.658 0.855 1.132 1.136 0.476 0.278 1.007 0.418 1.592 0.417v0c0.598 0 1.132-0.124 1.6-0.371 0.468-0.247 0.898-0.631 1.288-1.151v0c0.039-0.052 0.078-0.082 0.117-0.09 0.039-0.005 0.098 0.012 0.176 0.051v0l0.995 0.468c0.143 0.065 0.156 0.169 0.039 0.313v0c-0.364 0.533-0.765 0.969-1.202 1.307-0.434 0.338-0.918 0.585-1.452 0.741-0.533 0.156-1.125 0.234-1.776 0.235v0c-0.989 0-1.86-0.221-2.614-0.664-0.754-0.442-1.35-1.06-1.788-1.853-0.434-0.793-0.652-1.704-0.651-2.732v0c0-1.132 0.221-2.105 0.663-2.919 0.442-0.812 1.043-1.443 1.803-1.893 0.762-0.447 1.612-0.671 2.548-0.671v0c0.963 0 1.804 0.211 2.525 0.632 0.723 0.424 1.287 1.033 1.69 1.826 0.403 0.793 0.605 1.756 0.605 2.888v0c0 0.117-0.013 0.217-0.039 0.301-0.026 0.086-0.111 0.129-0.254 0.128v0h-7.219c-0.065 0-0.114 0.029-0.149 0.086-0.031 0.06-0.047 0.135-0.046 0.227zM78.753 237.971l5.287 0.019c0.143 0 0.234-0.02 0.274-0.058 0.039-0.039 0.059-0.111 0.058-0.215v0c0-0.494-0.108-0.963-0.324-1.405-0.213-0.442-0.519-0.8-0.917-1.073-0.395-0.273-0.886-0.41-1.471-0.41v0c-0.611 0-1.136 0.146-1.573 0.437-0.434 0.294-0.766 0.682-0.995 1.163-0.226 0.481-0.34 0.995-0.339 1.542zM104.361 243.98h-0.82c-0.13 0-0.221-0.026-0.273-0.078-0.052-0.052-0.078-0.143-0.078-0.273v0-13.834c0-0.195 0.091-0.293 0.273-0.293v0h1.561c0.156 0 0.234 0.098 0.234 0.293v0 4.722c0 0.13 0.029 0.202 0.086 0.215 0.06 0.013 0.135-0.02 0.226-0.098v0c0.143-0.143 0.347-0.306 0.613-0.488 0.268-0.182 0.6-0.345 0.995-0.488 0.398-0.143 0.857-0.215 1.378-0.214v0c0.937 0 1.711 0.23 2.322 0.691 0.611 0.463 1.069 1.091 1.373 1.884 0.307 0.793 0.46 1.704 0.461 2.732v0c0 1.665-0.388 2.985-1.163 3.961-0.773 0.976-1.868 1.463-3.286 1.464v0c-0.559 0-1.047-0.085-1.463-0.254-0.416-0.169-0.761-0.377-1.035-0.624-0.273-0.247-0.488-0.468-0.643-0.664v0c-0.052-0.065-0.101-0.095-0.149-0.09-0.044 0.008-0.066 0.057-0.066 0.149v0l-0.156 0.956c-0.039 0.221-0.169 0.332-0.39 0.331zM105.258 236.176v4.292c0 0.442 0.12 0.839 0.359 1.19 0.242 0.351 0.554 0.627 0.937 0.828 0.385 0.203 0.799 0.304 1.241 0.304v0c0.533 0 1.011-0.137 1.432-0.41 0.424-0.273 0.756-0.706 0.995-1.299 0.242-0.591 0.363-1.354 0.363-2.291v0c0-1.288-0.228-2.263-0.683-2.927-0.455-0.663-1.125-0.995-2.01-0.995v0c-0.533 0-1.028 0.124-1.483 0.371-0.455 0.247-0.839 0.559-1.151 0.937zM155.772 243.98v0c-0.091 0-0.167-0.026-0.227-0.078-0.057-0.052-0.086-0.13-0.086-0.234v0-0.741c0-0.091-0.026-0.143-0.078-0.156-0.052-0.013-0.111 0.013-0.175 0.078v0c-0.169 0.156-0.384 0.338-0.644 0.546-0.26 0.208-0.585 0.39-0.976 0.546-0.39 0.156-0.852 0.234-1.385 0.235v0c-0.807 0-1.532-0.195-2.178-0.586-0.643-0.39-1.15-0.973-1.522-1.748-0.369-0.773-0.554-1.738-0.554-2.896v0c0-1.106 0.195-2.068 0.585-2.888 0.39-0.82 0.924-1.461 1.6-1.923 0.676-0.46 1.437-0.691 2.283-0.691v0c0.611 0 1.128 0.098 1.55 0.293 0.424 0.195 0.805 0.442 1.143 0.741v0c0.104 0.091 0.182 0.126 0.234 0.105 0.052-0.018 0.078-0.099 0.078-0.242v0-4.546c0-0.195 0.085-0.293 0.254-0.293v0h1.561c0.169 0 0.254 0.098 0.254 0.293v0 13.854c0 0.117-0.026 0.202-0.078 0.253-0.052 0.052-0.15 0.078-0.293 0.078v0zM155.42 236.058v0c-0.377-0.377-0.754-0.67-1.131-0.878-0.377-0.208-0.8-0.312-1.269-0.312v0c-0.572 0-1.084 0.15-1.533 0.449-0.447 0.299-0.799 0.744-1.054 1.335-0.252 0.593-0.379 1.339-0.379 2.236v0c0 0.911 0.13 1.652 0.391 2.224 0.26 0.572 0.607 0.991 1.042 1.257 0.437 0.268 0.916 0.402 1.436 0.402v0c0.468 0 0.891-0.111 1.268-0.332 0.377-0.221 0.676-0.498 0.898-0.831 0.221-0.33 0.332-0.658 0.331-0.984v0zM176.501 239.532v0c0 0.585 0.139 1.115 0.418 1.588 0.281 0.476 0.658 0.855 1.132 1.136 0.476 0.278 1.007 0.418 1.592 0.417v0c0.598 0 1.132-0.124 1.6-0.371 0.468-0.247 0.898-0.631 1.288-1.151v0c0.039-0.052 0.078-0.082 0.117-0.09 0.039-0.005 0.098 0.012 0.175 0.051v0l0.995 0.468c0.143 0.065 0.156 0.169 0.04 0.313v0c-0.364 0.533-0.765 0.969-1.202 1.307-0.434 0.338-0.918 0.585-1.452 0.741-0.533 0.156-1.125 0.234-1.776 0.235v0c-0.989 0-1.86-0.221-2.614-0.664-0.754-0.442-1.35-1.06-1.788-1.853-0.434-0.793-0.652-1.704-0.651-2.732v0c0-1.132 0.221-2.105 0.663-2.919 0.442-0.812 1.043-1.443 1.803-1.893 0.762-0.447 1.612-0.671 2.548-0.671v0c0.963 0 1.804 0.211 2.525 0.632 0.723 0.424 1.287 1.033 1.69 1.826 0.403 0.793 0.605 1.756 0.605 2.888v0c0 0.117-0.013 0.217-0.039 0.301-0.026 0.086-0.111 0.129-0.254 0.128v0h-7.22c-0.065 0-0.114 0.029-0.148 0.086-0.031 0.06-0.047 0.135-0.047 0.227zM176.54 237.971l5.288 0.019c0.143 0 0.234-0.02 0.273-0.058 0.039-0.039 0.059-0.111 0.059-0.215v0c0-0.494-0.108-0.963-0.324-1.405-0.213-0.442-0.519-0.8-0.917-1.073-0.395-0.273-0.886-0.41-1.471-0.41v0c-0.611 0-1.136 0.146-1.573 0.437-0.434 0.294-0.766 0.682-0.995 1.163-0.226 0.481-0.34 0.995-0.34 1.542zM209.368 233.639v0c0.104 0 0.176 0.033 0.215 0.098 0.039 0.065 0.039 0.143 0 0.234v0l-3.942 9.678c-0.078 0.221-0.247 0.332-0.507 0.331v0h-0.917c-0.26 0-0.436-0.104-0.527-0.312v0l-3.922-9.678c-0.026-0.104-0.017-0.189 0.027-0.253 0.047-0.065 0.122-0.098 0.227-0.098v0h1.619c0.078 0 0.15 0.022 0.215 0.066 0.065 0.047 0.104 0.109 0.117 0.188v0l2.81 7.063c0.091 0.247 0.195 0.241 0.312-0.019v0l2.77-7.064c0.039-0.065 0.085-0.121 0.137-0.168 0.052-0.044 0.124-0.066 0.215-0.066v0zM227.187 239.532v0c0 0.585 0.14 1.115 0.421 1.588 0.278 0.476 0.656 0.855 1.132 1.136 0.473 0.278 1.003 0.418 1.588 0.417v0c0.598 0 1.132-0.124 1.6-0.371 0.468-0.247 0.898-0.631 1.288-1.151v0c0.039-0.052 0.078-0.082 0.117-0.09 0.039-0.005 0.098 0.012 0.175 0.051v0l0.996 0.468c0.143 0.065 0.156 0.169 0.039 0.313v0c-0.364 0.533-0.764 0.969-1.198 1.307-0.437 0.338-0.922 0.585-1.456 0.741-0.533 0.156-1.125 0.234-1.776 0.235v0c-0.989 0-1.86-0.221-2.614-0.664-0.754-0.442-1.349-1.06-1.784-1.853-0.437-0.793-0.656-1.704-0.655-2.732v0c0-1.132 0.221-2.105 0.663-2.919 0.442-0.812 1.045-1.443 1.807-1.893 0.76-0.447 1.608-0.671 2.544-0.671v0c0.963 0 1.806 0.211 2.529 0.632 0.721 0.424 1.283 1.033 1.686 1.826 0.403 0.793 0.605 1.756 0.605 2.888v0c0 0.117-0.013 0.217-0.039 0.301-0.026 0.086-0.111 0.129-0.254 0.128v0h-7.219c-0.065 0-0.113 0.029-0.145 0.086-0.034 0.06-0.051 0.135-0.05 0.227zM227.226 237.971l5.287 0.019c0.143 0 0.234-0.02 0.274-0.058 0.039-0.039 0.059-0.111 0.058-0.215v0c0-0.494-0.107-0.963-0.32-1.405-0.216-0.442-0.522-0.8-0.917-1.073-0.398-0.273-0.89-0.41-1.475-0.41v0c-0.611 0-1.134 0.146-1.569 0.437-0.437 0.294-0.769 0.682-0.995 1.163-0.229 0.481-0.343 0.995-0.343 1.542zM253.751 229.795v13.815c0 0.143-0.029 0.241-0.086 0.292-0.06 0.052-0.168 0.078-0.324 0.078v0h-1.327c-0.234 0-0.351-0.104-0.351-0.312v0l0.039-13.873c0-0.195 0.085-0.293 0.253-0.293v0h1.542c0.169 0 0.254 0.098 0.254 0.293zM275.671 244.176v0c-1.002 0-1.88-0.225-2.635-0.676-0.754-0.447-1.34-1.072-1.756-1.873-0.416-0.799-0.624-1.718-0.624-2.759v0c0-1.08 0.215-2.027 0.644-2.841 0.429-0.812 1.025-1.445 1.787-1.9 0.76-0.455 1.627-0.683 2.603-0.683v0c1.015 0 1.897 0.23 2.646 0.691 0.747 0.463 1.328 1.1 1.744 1.912 0.416 0.814 0.624 1.748 0.625 2.802v0c0 1.041-0.211 1.96-0.632 2.759-0.424 0.801-1.013 1.43-1.768 1.885-0.754 0.455-1.633 0.683-2.634 0.683zM275.71 242.712v0c0.611 0 1.132-0.156 1.561-0.468 0.429-0.312 0.758-0.758 0.987-1.339 0.226-0.578 0.34-1.276 0.339-2.095v0c0-0.82-0.113-1.522-0.339-2.108-0.229-0.585-0.561-1.038-0.995-1.358-0.437-0.317-0.961-0.476-1.573-0.476v0c-0.611 0-1.134 0.159-1.569 0.476-0.437 0.32-0.773 0.773-1.006 1.358-0.234 0.585-0.351 1.288-0.352 2.108v0c0 0.82 0.117 1.518 0.352 2.095 0.234 0.58 0.57 1.026 1.006 1.339 0.434 0.312 0.964 0.468 1.589 0.468zM299.327 233.639v0c0.221 0 0.332 0.104 0.332 0.312v0 0.761c0 0.091 0.023 0.139 0.07 0.145 0.044 0.008 0.105-0.021 0.184-0.086v0c0.169-0.169 0.377-0.355 0.624-0.558 0.247-0.2 0.563-0.379 0.948-0.535 0.382-0.156 0.853-0.234 1.413-0.234v0c0.793 0 1.506 0.191 2.139 0.573 0.63 0.385 1.13 0.961 1.502 1.729 0.369 0.767 0.554 1.743 0.554 2.927v0c0 1.197-0.185 2.201-0.554 3.013-0.372 0.814-0.886 1.432-1.541 1.853-0.658 0.424-1.423 0.636-2.295 0.637v0c-0.572 0-1.082-0.088-1.53-0.266-0.45-0.174-0.844-0.411-1.182-0.71v0c-0.117-0.117-0.202-0.167-0.254-0.148-0.052 0.021-0.078 0.109-0.078 0.265v0 3.61c0 0.182-0.078 0.273-0.234 0.273v0h-1.581c-0.169 0-0.254-0.091-0.253-0.273v0-12.937c0-0.13 0.026-0.221 0.078-0.273 0.052-0.052 0.15-0.078 0.292-0.078v0zM299.659 241.58v0c0.351 0.364 0.719 0.653 1.104 0.867 0.382 0.216 0.814 0.324 1.296 0.324v0c0.585 0 1.097-0.15 1.534-0.449 0.434-0.299 0.775-0.752 1.022-1.358 0.247-0.604 0.371-1.367 0.371-2.291v0c0-0.924-0.126-1.665-0.379-2.224-0.255-0.559-0.597-0.967-1.026-1.222-0.429-0.252-0.904-0.379-1.424-0.378v0c-0.481 0-0.911 0.104-1.288 0.312-0.377 0.208-0.673 0.468-0.886 0.78-0.216 0.312-0.324 0.624-0.324 0.937v0zM325.599 239.532v0c0 0.585 0.14 1.115 0.421 1.588 0.278 0.476 0.656 0.855 1.132 1.136 0.473 0.278 1.003 0.418 1.588 0.417v0c0.598 0 1.132-0.124 1.6-0.371 0.468-0.247 0.898-0.631 1.288-1.151v0c0.039-0.052 0.078-0.082 0.117-0.09 0.039-0.005 0.098 0.012 0.176 0.051v0l0.995 0.468c0.143 0.065 0.156 0.169 0.039 0.313v0c-0.364 0.533-0.764 0.969-1.198 1.307-0.437 0.338-0.922 0.585-1.456 0.741-0.533 0.156-1.125 0.234-1.775 0.235v0c-0.989 0-1.86-0.221-2.615-0.664-0.754-0.442-1.349-1.06-1.784-1.853-0.437-0.793-0.656-1.704-0.655-2.732v0c0-1.132 0.221-2.105 0.663-2.919 0.442-0.812 1.045-1.443 1.807-1.893 0.76-0.447 1.608-0.671 2.545-0.671v0c0.963 0 1.806 0.211 2.528 0.632 0.721 0.424 1.283 1.033 1.686 1.826 0.403 0.793 0.605 1.756 0.605 2.888v0c0 0.117-0.013 0.217-0.039 0.301-0.026 0.086-0.111 0.129-0.254 0.128v0h-7.219c-0.065 0-0.113 0.029-0.145 0.086-0.034 0.06-0.051 0.135-0.05 0.227zM325.638 237.971l5.288 0.019c0.143 0 0.234-0.02 0.273-0.058 0.039-0.039 0.059-0.111 0.058-0.215v0c0-0.494-0.107-0.963-0.32-1.405-0.216-0.442-0.522-0.8-0.917-1.073-0.398-0.273-0.89-0.41-1.475-0.41v0c-0.611 0-1.134 0.146-1.569 0.437-0.437 0.294-0.769 0.682-0.995 1.163-0.229 0.481-0.343 0.995-0.343 1.542zM350.387 243.98v0c-0.104 0-0.182-0.026-0.234-0.078-0.052-0.052-0.078-0.13-0.078-0.234v0-9.736c0-0.195 0.085-0.293 0.254-0.293v0h1.502c0.156 0 0.234 0.085 0.234 0.254v0 1.229c0 0.078 0.023 0.124 0.07 0.136 0.044 0.013 0.092-0.013 0.145-0.078v0c0.325-0.39 0.654-0.713 0.987-0.967 0.33-0.252 0.665-0.444 1.003-0.574 0.338-0.13 0.676-0.195 1.015-0.195v0c0.455 0 0.683 0.091 0.683 0.273v0 1.522c0 0.156-0.072 0.221-0.215 0.195v0c-0.156-0.039-0.321-0.065-0.496-0.078-0.177-0.013-0.356-0.02-0.538-0.019v0c-0.273 0-0.559 0.059-0.859 0.175-0.299 0.117-0.575 0.276-0.827 0.476-0.255 0.203-0.467 0.428-0.636 0.675-0.169 0.247-0.254 0.501-0.254 0.761v0 6.225c0 0.221-0.124 0.332-0.371 0.331v0z" fill="#ffffff" fill-rule="nonzero" stroke="none" stroke-width="1" stroke-linecap="butt" stroke-linejoin="miter" stroke-miterlimit="10" stroke-dasharray="" stroke-dashoffset="0" font-family="none" font-weight="none" font-size="none" text-anchor="none" style="mix-blend-mode: normal" data-fill-palette-color="secondary"></path></g></g><g transform="matrix(1,0,0,1,29.331764404296877,64.14297035895218)"><svg viewBox="0 0 316.416 112.4606565721347" height="112.4606565721347" width="316.416"><g><svg viewBox="0 0 316.416 112.4606565721347" height="112.4606565721347" width="316.416"><g><svg viewBox="0 0 316.416 112.4606565721347" height="112.4606565721347" width="316.416"><g transform="matrix(1,0,0,1,0,69.50519745936077)"><svg viewBox="0 0 316.416 42.95545911277392" height="42.95545911277392" width="316.416"><g id="textblocktransform"><svg viewBox="0 0 316.416 42.95545911277392" height="42.95545911277392" width="316.416" id="textblock"><g><svg viewBox="0 0 316.416 42.95545911277392" height="42.95545911277392" width="316.416"><g transform="matrix(1,0,0,1,0,0)"><svg width="316.416" viewBox="4.849999904632568 -37.599998474121094 280.6300048828125 38.099998474121094" height="42.95545911277392" data-palette-color="#ffffff"><path d="M31.8-26.3L31.8-26.3Q31.8-22.6 30.1-20.2 28.4-17.8 25.45-16.65 22.5-15.5 18.6-15.5L18.6-15.5 10.1-15.5Q9.65-15.5 9.65-15.05L9.65-15.05 9.65-0.75Q9.65 0 8.9 0L8.9 0 5.5 0Q5.15 0 5-0.15 4.85-0.3 4.85-0.65L4.85-0.65 4.85-36.4Q4.85-37.1 5.45-37.1L5.45-37.1 18.05-37.1Q22-37.1 25.1-36 28.2-34.9 30-32.5 31.8-30.1 31.8-26.3L31.8-26.3ZM26.9-26.45L26.9-26.45Q26.9-29 25.78-30.55 24.65-32.1 22.63-32.77 20.6-33.45 17.8-33.45L17.8-33.45 10.3-33.45Q9.65-33.45 9.65-32.85L9.65-32.85 9.65-19.85Q9.65-19.15 10.1-19.15L10.1-19.15 18.15-19.15Q22.1-19.15 24.5-20.9 26.9-22.65 26.9-26.45L26.9-26.45ZM53.6 0.5L53.6 0.5Q48.7 0.5 45.12-1.7 41.55-3.9 39.65-8.13 37.75-12.35 37.75-18.4L37.75-18.4Q37.75-24.5 39.7-28.8 41.65-33.1 45.2-35.35 48.75-37.6 53.65-37.6L53.65-37.6Q58.55-37.6 62.07-35.35 65.6-33.1 67.52-28.85 69.45-24.6 69.45-18.45L69.45-18.45Q69.45-12.4 67.55-8.18 65.65-3.95 62.07-1.73 58.5 0.5 53.6 0.5L53.6 0.5ZM53.7-3.15L53.7-3.15Q59.1-3.15 61.77-6.88 64.45-10.6 64.45-18.4L64.45-18.4Q64.45-26.35 61.72-30.15 59-33.95 53.65-33.95L53.65-33.95Q48.25-33.95 45.5-30.13 42.75-26.3 42.75-18.4L42.75-18.4Q42.75-10.65 45.5-6.9 48.25-3.15 53.7-3.15L53.7-3.15ZM104.05-0.95L104.05-0.95Q104.2-0.6 104.02-0.3 103.85 0 103.5 0L103.5 0 99.85 0Q99.3 0 99.05-0.6L99.05-0.6 92.6-16.35Q92.35-16.9 91.4-16.9L91.4-16.9 82.95-16.9Q82.6-16.9 82.47-16.75 82.35-16.6 82.35-16.35L82.35-16.35 82.35-0.8Q82.35 0 81.5 0L81.5 0 78.25 0Q77.85 0 77.7-0.18 77.55-0.35 77.55-0.65L77.55-0.65 77.55-36.4Q77.55-37.1 78.15-37.1L78.15-37.1 92.1-37.1Q98-37.1 101.27-34.68 104.55-32.25 104.55-27.5L104.55-27.5Q104.55-24.65 103.45-22.68 102.35-20.7 100.67-19.53 99-18.35 97.25-17.8L97.25-17.8Q96.85-17.75 97.05-17.3L97.05-17.3 104.05-0.95ZM90.7-20.4L90.7-20.4Q95.1-20.4 97.32-22 99.55-23.6 99.55-27.05L99.55-27.05Q99.55-30.4 97.57-32 95.6-33.6 91.85-33.6L91.85-33.6 83.05-33.6Q82.35-33.6 82.35-33.05L82.35-33.05 82.35-21.05Q82.35-20.4 82.8-20.4L82.8-20.4 90.7-20.4ZM109.09-33.95L109.09-36.55Q109.09-36.8 109.22-36.95 109.34-37.1 109.69-37.1L109.69-37.1 136.59-37.1Q136.89-37.1 137.04-36.95 137.19-36.8 137.19-36.55L137.19-36.55 137.19-33.95Q137.19-33.45 136.59-33.45L136.59-33.45 126.44-33.45Q125.89-33.45 125.89-32.95L125.89-32.95 125.89-0.65Q125.89 0 125.29 0L125.29 0 121.69 0Q121.09 0 121.09-0.65L121.09-0.65 121.09-32.9Q121.09-33.45 120.59-33.45L120.59-33.45 109.69-33.45Q109.09-33.45 109.09-33.95L109.09-33.95ZM144.09-36.4L144.09-36.4Q144.09-37.1 144.69-37.1L144.69-37.1 166.69-37.1Q167.19-37.1 167.19-36.55L167.19-36.55 167.19-34Q167.19-33.4 166.54-33.4L166.54-33.4 149.54-33.4Q148.89-33.4 148.89-32.8L148.89-32.8 148.89-20.5Q148.89-19.95 149.44-19.95L149.44-19.95 162.79-19.95Q163.34-19.95 163.34-19.45L163.34-19.45 163.34-16.8Q163.34-16.35 162.79-16.35L162.79-16.35 149.44-16.35Q148.89-16.35 148.89-15.8L148.89-15.8 148.89-0.65Q148.89 0 148.19 0L148.19 0 144.79 0Q144.39 0 144.24-0.15 144.09-0.3 144.09-0.7L144.09-0.7 144.09-36.4ZM186.84 0.5L186.84 0.5Q181.94 0.5 178.36-1.7 174.79-3.9 172.89-8.13 170.99-12.35 170.99-18.4L170.99-18.4Q170.99-24.5 172.94-28.8 174.89-33.1 178.44-35.35 181.99-37.6 186.89-37.6L186.89-37.6Q191.79-37.6 195.31-35.35 198.84-33.1 200.76-28.85 202.69-24.6 202.69-18.45L202.69-18.45Q202.69-12.4 200.79-8.18 198.89-3.95 195.31-1.73 191.74 0.5 186.84 0.5L186.84 0.5ZM186.94-3.15L186.94-3.15Q192.34-3.15 195.01-6.88 197.69-10.6 197.69-18.4L197.69-18.4Q197.69-26.35 194.96-30.15 192.24-33.95 186.89-33.95L186.89-33.95Q181.49-33.95 178.74-30.13 175.99-26.3 175.99-18.4L175.99-18.4Q175.99-10.65 178.74-6.9 181.49-3.15 186.94-3.15L186.94-3.15ZM210.78-36.4L210.78-36.4Q210.78-37.1 211.38-37.1L211.38-37.1 214.99-37.1Q215.59-37.1 215.59-36.45L215.59-36.45 215.59-4.2Q215.59-3.7 216.09-3.7L216.09-3.7 233.38-3.7Q233.99-3.7 233.99-3.2L233.99-3.2 233.99-0.55Q233.99-0.3 233.84-0.15 233.69 0 233.38 0L233.38 0 211.49 0Q211.09 0 210.94-0.18 210.78-0.35 210.78-0.7L210.78-0.7 210.78-36.4ZM241.48-37.1L245.08-37.1Q245.68-37.1 245.68-36.45L245.68-36.45 245.68-0.85Q245.68-0.35 245.48-0.18 245.28 0 244.78 0L244.78 0 241.63 0Q241.18 0 241.03-0.15 240.88-0.3 240.88-0.7L240.88-0.7 240.88-36.4Q240.88-37.1 241.48-37.1L241.48-37.1ZM269.63 0.5L269.63 0.5Q264.73 0.5 261.15-1.7 257.58-3.9 255.68-8.13 253.78-12.35 253.78-18.4L253.78-18.4Q253.78-24.5 255.73-28.8 257.68-33.1 261.23-35.35 264.78-37.6 269.68-37.6L269.68-37.6Q274.58-37.6 278.11-35.35 281.63-33.1 283.56-28.85 285.48-24.6 285.48-18.45L285.48-18.45Q285.48-12.4 283.58-8.18 281.68-3.95 278.11-1.73 274.53 0.5 269.63 0.5L269.63 0.5ZM269.73-3.15L269.73-3.15Q275.13-3.15 277.81-6.88 280.48-10.6 280.48-18.4L280.48-18.4Q280.48-26.35 277.75-30.15 275.03-33.95 269.68-33.95L269.68-33.95Q264.28-33.95 261.53-30.13 258.78-26.3 258.78-18.4L258.78-18.4Q258.78-10.65 261.53-6.9 264.28-3.15 269.73-3.15L269.73-3.15Z" opacity="1" transform="matrix(1,0,0,1,0,0)" fill="#ffffff" class="wordmark-text-0" data-fill-palette-color="primary" id="text-0"></path></svg></g></svg></g></svg></g></svg></g><g transform="matrix(1,0,0,1,109.6582114468107,0)"><svg viewBox="0 0 97.09957710637862 59.36444449385356" height="59.36444449385356" width="97.09957710637862"><g><svg xmlns="http://www.w3.org/2000/svg" xmlns:xlink="http://www.w3.org/1999/xlink" version="1.1" x="0" y="0" viewBox="9.039999961853027 25.45800018310547 81.91999816894531 50.08399963378906" enable-background="new 0 0 100 100" xml:space="preserve" height="59.36444449385356" width="97.09957710637862" class="icon-icon-0" data-fill-palette-color="accent" id="icon-0"><path d="M81.268 25.458H18.562c-1.573 0-2.853 1.272-2.853 2.846v37.172c0 1.573 1.279 2.847 2.853 2.847h62.704c1.573 0 2.854-1.272 2.854-2.847V28.305C84.119 26.731 82.84 25.458 81.268 25.458zM50.031 26.252c0.882 0 1.594 0.718 1.594 1.601 0 0.882-0.712 1.594-1.594 1.594-0.882 0-1.601-0.711-1.601-1.594C48.43 26.97 49.148 26.252 50.031 26.252zM80.016 60.859c0 1.574-1.279 2.847-2.854 2.847H22.667c-1.573 0-2.853-1.272-2.853-2.847V33.264c0-1.574 1.279-2.846 2.853-2.846h54.495c1.572 0 2.854 1.272 2.854 2.846V60.859z" fill="#ffffff" data-fill-palette-color="accent"></path><path d="M90.96 70.639c0 3.264-2.642 4.903-5.897 4.903H14.944c-3.263 0-5.904-1.642-5.904-4.903h27.924c0.691 0.719 1.663 1.17 2.744 1.17h18.36c1.08 0 2.053-0.451 2.744-1.17H90.96z" fill="#ffffff" data-fill-palette-color="accent"></path><path d="M65.76 43.83l-0.14 0.34-1.94 4.6-1.21 2.89L62.32 52h2.439l0.141-0.33 1.93-4.61 1.22-2.9 0.141-0.33H65.76zM72.06 43.83l-2.069 4.93-1.221 2.9L68.62 52h2.439l0.15-0.34 3.29-7.83H72.06zM71.21 51.66l-1.22-2.9-1.94-4.6-0.14-0.33h-2.44l0.15 0.34 1.21 2.89 1.939 4.6L68.91 52h2.439L71.21 51.66zM64.9 51.67l-1.221-2.9-2.08-4.94h-2.43l3.3 7.83L62.61 52h2.43L64.9 51.67zM48.76 43.83l-0.14 0.34-1.94 4.6-1.21 2.89L45.32 52h2.44l0.14-0.33 1.93-4.61 1.22-2.9 0.141-0.33H48.76zM55.06 43.83l-2.069 4.93-1.221 2.9L51.62 52h2.439l0.15-0.34 3.29-7.83H55.06zM54.21 51.66l-1.22-2.9-1.94-4.6-0.14-0.33h-2.44l0.15 0.34 1.21 2.89 1.939 4.6L51.91 52h2.439L54.21 51.66zM47.9 51.67l-1.22-2.9-2.08-4.94h-2.43l3.3 7.83L45.61 52h2.43L47.9 51.67zM31.76 43.83l-0.14 0.34-1.94 4.6 1.22 2.9 1.93-4.61 1.22-2.9 0.14-0.33H31.76zM28.32 52h0.29l-0.14-0.34L28.32 52zM38.06 43.83l-2.07 4.93-1.22 2.9L34.62 52h2.44l0.15-0.34 3.29-7.83H38.06zM37.21 51.66l-1.22-2.9-1.94-4.6-0.14-0.33h-2.44l0.15 0.34 1.21 2.89 1.94 4.6L34.91 52h2.44L37.21 51.66zM30.9 51.67L30.76 52h0.28L30.9 51.67zM25.17 43.83l3.3 7.83 1.21-2.89-2.08-4.94H25.17z" fill="#ffffff" data-fill-palette-color="accent"></path><polygon points="30.9,51.67 30.76,52 28.61,52 28.47,51.66 29.68,48.77 " fill="#ffffff" data-fill-palette-color="accent"></polygon></svg></g></svg></g><g></g></svg></g></svg></g></svg></g></svg></g><defs></defs></svg>