<svg width="300" height="100" viewBox="0 0 300 100" fill="none" xmlns="http://www.w3.org/2000/svg">
<path d="M76.4929 90.0013L79.2783 77.6781H81.7558L77.5374 93.8011H75.5287L72.0066 81.5822L68.5784 93.8011H66.5696L62.3646 77.6781H64.8287L67.6811 89.748L71.0558 77.6781H73.0512L76.4929 90.0013Z" fill="#F9F9F9"/>
<path d="M90.2997 94.0992C88.3356 94.0992 86.7375 93.3839 85.5055 91.9534C84.2734 90.5129 83.6574 88.5907 83.6574 86.1867V85.68C83.6574 84.0806 83.9297 82.6551 84.4743 81.4034C85.0278 80.1418 85.7956 79.1583 86.7777 78.453C87.7687 77.7377 88.84 77.3801 89.9917 77.3801C91.8755 77.3801 93.3396 78.0705 94.3842 79.4513C95.4287 80.8322 95.951 82.8091 95.951 85.382V86.5294H86.1349C86.1706 88.1188 86.5857 89.4053 87.3803 90.3888C88.1838 91.3623 89.2016 91.8491 90.4336 91.8491C91.3085 91.8491 92.0496 91.6504 92.6566 91.253C93.2637 90.8557 93.7949 90.3292 94.2503 89.6735L95.7635 90.9848C94.5493 93.061 92.7281 94.0992 90.2997 94.0992ZM89.9917 79.6451C88.9918 79.6451 88.1526 80.0524 87.474 80.867C86.7955 81.6716 86.3759 82.8041 86.2152 84.2644H93.4735V84.0558C93.4021 82.6551 93.0629 81.5723 92.4558 80.8073C91.8487 80.0325 91.0273 79.6451 89.9917 79.6451Z" fill="#F9F9F9"/>
<path d="M111.07 85.9184C111.07 88.3821 110.561 90.3639 109.544 91.864C108.526 93.3541 107.16 94.0991 105.446 94.0991C103.616 94.0991 102.2 93.3789 101.201 91.9385L101.08 93.8011H98.8034V70.913H101.281V79.4513C102.281 78.0705 103.66 77.3801 105.419 77.3801C107.178 77.3801 108.557 78.1202 109.557 79.6004C110.566 81.0805 111.07 83.1071 111.07 85.68V85.9184ZM108.593 85.6055C108.593 83.728 108.267 82.2776 107.615 81.2544C106.963 80.2312 106.026 79.7196 104.803 79.7196C103.169 79.7196 101.995 80.564 101.281 82.2528V89.2265C102.04 90.9153 103.223 91.7597 104.83 91.7597C106.017 91.7597 106.941 91.2481 107.602 90.2249C108.262 89.2016 108.593 87.6619 108.593 85.6055Z" fill="#F9F9F9"/>
<path d="M120.378 85.6055C120.378 83.1319 120.904 81.1451 121.958 79.6451C123.011 78.1351 124.391 77.3801 126.096 77.3801C127.792 77.3801 129.136 78.0258 130.127 79.3172V70.913H132.604V93.8011H130.328L130.207 92.0726C129.216 93.4236 127.837 94.0991 126.069 94.0991C124.391 94.0991 123.02 93.3342 121.958 91.8044C120.904 90.2745 120.378 88.2778 120.378 85.8141V85.6055ZM122.855 85.9184C122.855 87.7463 123.194 89.1768 123.873 90.21C124.551 91.2431 125.489 91.7597 126.685 91.7597C128.256 91.7597 129.404 90.9749 130.127 89.4053V81.9994C129.386 80.4795 128.247 79.7196 126.712 79.7196C125.498 79.7196 124.551 80.2411 123.873 81.2842C123.194 82.3273 122.855 83.872 122.855 85.9184Z" fill="#F9F9F9"/>
<path d="M142.474 94.0992C140.51 94.0992 138.912 93.3839 137.68 91.9534C136.448 90.5129 135.832 88.5907 135.832 86.1867V85.68C135.832 84.0806 136.104 82.6551 136.648 81.4034C137.202 80.1418 137.97 79.1583 138.952 78.453C139.943 77.7377 141.014 77.3801 142.166 77.3801C144.05 77.3801 145.514 78.0705 146.558 79.4513C147.603 80.8322 148.125 82.8091 148.125 85.382V86.5294H138.309C138.345 88.1188 138.76 89.4053 139.554 90.3888C140.358 91.3623 141.376 91.8491 142.608 91.8491C143.483 91.8491 144.224 91.6504 144.831 91.253C145.438 90.8557 145.969 90.3292 146.424 89.6735L147.938 90.9848C146.723 93.061 144.902 94.0992 142.474 94.0992ZM142.166 79.6451C141.166 79.6451 140.327 80.0524 139.648 80.867C138.97 81.6716 138.55 82.8041 138.389 84.2644H145.648V84.0558C145.576 82.6551 145.237 81.5723 144.63 80.8073C144.023 80.0325 143.201 79.6451 142.166 79.6451Z" fill="#F9F9F9"/>
<path d="M155.598 90.0609L159.187 77.6781H161.718L156.522 93.8011H154.634L149.384 77.6781H151.915L155.598 90.0609Z" fill="#F9F9F9"/>
<path d="M169.954 94.0992C167.99 94.0992 166.391 93.3839 165.159 91.9534C163.927 90.5129 163.311 88.5907 163.311 86.1867V85.68C163.311 84.0806 163.584 82.6551 164.128 81.4034C164.682 80.1418 165.45 79.1583 166.432 78.453C167.423 77.7377 168.494 77.3801 169.646 77.3801C171.529 77.3801 172.994 78.0705 174.038 79.4513C175.083 80.8322 175.605 82.8091 175.605 85.382V86.5294H165.789C165.825 88.1188 166.24 89.4053 167.034 90.3888C167.838 91.3623 168.856 91.8491 170.088 91.8491C170.962 91.8491 171.704 91.6504 172.311 91.253C172.918 90.8557 173.449 90.3292 173.904 89.6735L175.417 90.9848C174.203 93.061 172.382 94.0992 169.954 94.0992ZM169.646 79.6451C168.646 79.6451 167.807 80.0524 167.128 80.867C166.449 81.6716 166.03 82.8041 165.869 84.2644H173.127V84.0558C173.056 82.6551 172.717 81.5723 172.11 80.8073C171.503 80.0325 170.681 79.6451 169.646 79.6451Z" fill="#F9F9F9"/>
<path d="M181.149 93.8011H178.672V70.913H181.149V93.8011Z" fill="#F9F9F9"/>
<path d="M184.443 85.5906C184.443 84.0111 184.72 82.5905 185.274 81.3289C185.836 80.0673 186.613 79.0937 187.604 78.4083C188.604 77.7228 189.742 77.3801 191.019 77.3801C192.992 77.3801 194.585 78.14 195.8 79.66C197.023 81.1799 197.634 83.2015 197.634 85.7247V85.9184C197.634 87.488 197.362 88.8987 196.817 90.1504C196.282 91.3921 195.509 92.3607 194.501 93.0561C193.501 93.7515 192.349 94.0992 191.046 94.0992C189.081 94.0992 187.488 93.3392 186.265 91.8193C185.051 90.2994 184.443 88.2877 184.443 85.7843V85.5906ZM186.934 85.9184C186.934 87.7066 187.305 89.142 188.046 90.2249C188.796 91.3077 189.796 91.8491 191.046 91.8491C192.304 91.8491 193.304 91.3027 194.045 90.21C194.786 89.1073 195.157 87.5675 195.157 85.5906C195.157 83.8223 194.777 82.3918 194.019 81.2991C193.269 80.1964 192.269 79.6451 191.019 79.6451C189.796 79.6451 188.809 80.1865 188.059 81.2693C187.309 82.3521 186.934 83.9018 186.934 85.9184Z" fill="#F9F9F9"/>
<path d="M212.981 85.9184C212.981 88.3722 212.477 90.349 211.468 91.8491C210.459 93.3491 209.093 94.0992 207.37 94.0992C205.611 94.0992 204.228 93.4783 203.219 92.2365V100H200.741V77.6781H203.004L203.125 79.4662C204.134 78.0755 205.535 77.3801 207.33 77.3801C209.071 77.3801 210.446 78.1102 211.455 79.5706C212.472 81.0309 212.981 83.0624 212.981 85.6651V85.9184ZM210.504 85.6055C210.504 83.7876 210.156 82.3521 209.459 81.2991C208.763 80.2461 207.808 79.7196 206.593 79.7196C205.094 79.7196 203.969 80.4597 203.219 81.9398V89.6437C203.96 91.114 205.094 91.8491 206.62 91.8491C207.808 91.8491 208.749 91.3275 209.446 90.2845C210.151 89.2315 210.504 87.6718 210.504 85.6055Z" fill="#F9F9F9"/>
<path d="M222.128 94.0992C220.164 94.0992 218.566 93.3839 217.334 91.9534C216.102 90.5129 215.485 88.5907 215.485 86.1867V85.68C215.485 84.0806 215.758 82.6551 216.302 81.4034C216.856 80.1418 217.624 79.1583 218.606 78.453C219.597 77.7377 220.668 77.3801 221.82 77.3801C223.704 77.3801 225.168 78.0705 226.212 79.4513C227.257 80.8322 227.779 82.8091 227.779 85.382V86.5294H217.963C217.999 88.1188 218.414 89.4053 219.208 90.3888C220.012 91.3623 221.03 91.8491 222.262 91.8491C223.137 91.8491 223.878 91.6504 224.485 91.253C225.092 90.8557 225.623 90.3292 226.078 89.6735L227.592 90.9848C226.377 93.061 224.556 94.0992 222.128 94.0992ZM221.82 79.6451C220.82 79.6451 219.981 80.0524 219.302 80.867C218.624 81.6716 218.204 82.8041 218.043 84.2644H225.302V84.0558C225.23 82.6551 224.891 81.5723 224.284 80.8073C223.677 80.0325 222.855 79.6451 221.82 79.6451Z" fill="#F9F9F9"/>
<path d="M237.635 80.1517C237.26 80.0822 236.854 80.0474 236.417 80.0474C234.792 80.0474 233.689 80.8173 233.109 82.3571V93.8011H230.632V77.6781H233.042L233.082 79.5408C233.895 78.1003 235.046 77.3801 236.537 77.3801C237.019 77.3801 237.385 77.4496 237.635 77.5887V80.1517Z" fill="#F9F9F9"/>
<path d="M5.4921 52.5969C6.10919 51.9789 6.41772 51.0863 6.41772 50.0563V37.0788C6.41772 36.5295 6.60286 36.0488 6.97311 35.6368C7.34336 35.2248 7.77532 35.0188 8.26899 35.0188H15.5507C18.5744 35.0188 21.2896 34.3322 23.6963 32.8216C26.1029 31.3796 27.9542 29.3884 29.3118 26.7104C30.6694 24.1699 31.3482 21.1486 31.3482 17.7841C31.3482 14.3509 30.6694 11.3296 29.3118 8.58305C27.9542 5.90514 26.1029 3.77654 23.6963 2.26592C21.2896 0.755308 18.5744 0 15.5507 0H3.20886C2.28322 0 1.48101 0.34332 0.925624 1.02996C0.308534 1.71661 0 2.54058 0 3.57055V50.0563C0 51.0863 0.308534 51.9103 0.925624 52.5969C1.54271 53.2836 2.28322 53.6269 3.20886 53.6269C4.1345 53.6269 4.87501 53.2836 5.4921 52.5969ZM22.4621 25.4745C20.6108 27.4658 18.3276 28.4271 15.5507 28.4271H8.26899C7.77532 28.4271 7.34336 28.2211 6.97311 27.8091C6.60286 27.3971 6.41772 26.9164 6.41772 26.3671V8.65171C6.41772 8.1024 6.60286 7.62175 6.97311 7.20976C7.34336 6.79777 7.77532 6.59178 8.26899 6.59178H15.5507C18.3276 6.59178 20.6108 7.69041 22.4621 9.75034C24.2516 11.8789 25.1773 14.5568 25.1773 17.7841C25.1773 20.9426 24.2516 23.4832 22.4621 25.4745Z" fill="#F9F9F9"/>
<path d="M64.9155 18.2647C62.3237 16.6168 59.4233 15.7928 56.2145 15.7928C52.8822 15.7928 49.9819 16.6168 47.3901 18.2647C44.7983 19.9127 42.7619 22.1099 41.3426 24.9938C39.8616 27.8777 39.1828 31.1736 39.1828 34.8815C39.1828 38.5894 39.8616 41.8166 41.3426 44.7005C42.7619 47.5844 44.7983 49.8503 47.3901 51.4983C49.9819 53.1462 52.8822 53.9015 56.2145 53.9015C59.485 53.9015 62.3854 53.1462 64.9772 51.4983C67.5689 49.8503 69.5436 47.5844 71.0246 44.7005C72.4439 41.8166 73.1844 38.5894 73.1844 34.8815C73.1844 31.1736 72.444 27.8777 70.9629 24.9938C69.4819 22.1099 67.5072 19.9127 64.9155 18.2647ZM50.5372 23.6205C52.2034 22.5219 54.1164 21.9726 56.2145 21.9726C58.3126 21.9726 60.1639 22.5219 61.83 23.6205C63.4961 24.7192 64.792 26.2985 65.7176 28.2211C66.6433 30.2123 67.137 32.4096 67.137 34.8815C67.137 37.3534 66.6433 39.6193 65.7176 41.542C64.792 43.4646 63.4961 44.9752 61.83 46.0738C60.1639 47.1724 58.3126 47.7217 56.2145 47.7217C54.1164 47.7217 52.2034 47.1724 50.5372 46.0738C48.8711 44.9752 47.5752 43.4646 46.6496 41.542C45.6622 39.6193 45.2303 37.3534 45.2303 34.8815C45.2303 32.4096 45.6622 30.2123 46.6496 28.2211C47.5752 26.2985 48.8711 24.7192 50.5372 23.6205Z" fill="#F9F9F9"/>
<path d="M108.558 16.7541C107.323 16.0675 105.596 15.6555 103.436 15.6555C101.338 15.6555 99.4247 16.1361 97.6351 17.0288C95.7839 17.9901 94.3029 19.226 93.0687 20.8053V19.5007C93.0687 17.2348 92.0196 16.0675 89.9832 16.0675C88.9959 16.0675 88.1937 16.4108 87.7 16.9601C87.1446 17.5781 86.8978 18.4021 86.8978 19.5007V50.1937C86.8978 51.361 87.1446 52.2536 87.7 52.8029C88.1937 53.3522 88.9959 53.6269 89.9832 53.6269C90.9706 53.6269 91.7728 53.3522 92.2665 52.7343C92.7601 52.185 93.0687 51.2923 93.0687 50.1937V30.1437C93.0687 27.6031 93.9326 25.5432 95.7839 24.0325C97.5734 22.5219 99.9801 21.7666 102.942 21.7666C103.929 21.7666 105.287 21.9726 106.953 22.2473C107.323 22.3846 107.632 22.3846 107.879 22.3846C109.113 22.3846 109.977 21.698 110.347 20.1873C110.347 20.05 110.409 19.844 110.409 19.5007C110.409 18.4021 109.792 17.5094 108.558 16.7541Z" fill="#F9F9F9"/>
<path d="M122.613 17.4408V23.3459V40.306C122.613 42.8466 123.045 45.1125 124.033 47.1038C124.958 49.1637 126.254 50.743 127.92 51.9103C129.586 53.0776 131.438 53.6269 133.474 53.6269H134.585C135.634 53.6269 136.498 53.3522 137.177 52.6656C137.855 52.0476 138.226 51.2236 138.226 50.1937C138.226 49.2324 137.917 48.4084 137.423 47.7217C136.93 47.1038 136.313 46.7604 135.572 46.7604H133.474C132.116 46.7604 131.006 46.1425 130.142 44.9065C129.216 43.6705 128.784 42.1599 128.784 40.306V23.3459H134.029C134.893 23.3459 135.572 23.0712 136.128 22.5219C136.621 21.9726 136.93 21.286 136.93 20.462C136.93 19.5693 136.621 18.814 136.128 18.2647C135.572 17.7154 134.893 17.4408 134.029 17.4408H128.784V7.55308C128.784 6.59178 128.476 5.76781 127.92 5.08116C127.303 4.46318 126.563 4.11986 125.699 4.11986C124.773 4.11986 124.033 4.46318 123.477 5.08116C122.86 5.76781 122.613 6.59178 122.613 7.55308V17.4408Z" fill="#F9F9F9"/>
<path d="M150.804 17.4408V23.3459V50.125C150.804 51.2236 151.051 52.0476 151.668 52.6656C152.285 53.3522 152.964 53.6269 153.828 53.6269C154.815 53.6269 155.617 53.3522 156.235 52.6656C156.79 52.0476 157.098 51.2236 157.098 50.125V23.3459H163.393C164.257 23.3459 164.935 23.0712 165.491 22.5219C165.985 21.9726 166.293 21.286 166.293 20.462C166.293 19.5693 165.985 18.814 165.491 18.2647C164.935 17.7154 164.257 17.4408 163.393 17.4408H157.098V15.5868C157.098 12.8402 157.777 10.5743 159.197 8.8577C160.554 7.20976 162.405 6.31712 164.75 6.31712C165.614 6.31712 166.355 6.04247 166.972 5.42449C167.589 4.87517 167.898 4.11986 167.898 3.15856C167.898 2.26593 167.589 1.51061 166.972 0.892634C166.355 0.343319 165.614 0 164.75 0C161.973 0 159.567 0.686644 157.469 2.05993C155.371 3.43322 153.704 5.28716 152.532 7.75907C151.36 10.231 150.804 13.0462 150.804 16.2735V17.4408Z" fill="#F9F9F9"/>
<path d="M199.931 18.2647C197.339 16.6168 194.439 15.7928 191.23 15.7928C187.897 15.7928 184.997 16.6168 182.405 18.2647C179.814 19.9127 177.777 22.1099 176.358 24.9938C174.877 27.8777 174.198 31.1736 174.198 34.8815C174.198 38.5894 174.877 41.8166 176.358 44.7005C177.777 47.5844 179.814 49.8503 182.405 51.4983C184.997 53.1462 187.897 53.9015 191.23 53.9015C194.5 53.9015 197.401 53.1462 199.992 51.4983C202.584 49.8503 204.559 47.5844 206.04 44.7005C207.459 41.8166 208.2 38.5894 208.2 34.8815C208.2 31.1736 207.459 27.8777 205.978 24.9938C204.497 22.1099 202.523 19.9127 199.931 18.2647ZM185.553 23.6205C187.219 22.5219 189.132 21.9726 191.23 21.9726C193.328 21.9726 195.179 22.5219 196.845 23.6205C198.511 24.7192 199.807 26.2985 200.733 28.2211C201.659 30.2123 202.152 32.4096 202.152 34.8815C202.152 37.3534 201.659 39.6193 200.733 41.542C199.807 43.4646 198.511 44.9752 196.845 46.0738C195.179 47.1724 193.328 47.7217 191.23 47.7217C189.132 47.7217 187.219 47.1724 185.553 46.0738C183.886 44.9752 182.591 43.4646 181.665 41.542C180.678 39.6193 180.246 37.3534 180.246 34.8815C180.246 32.4096 180.678 30.2123 181.665 28.2211C182.591 26.2985 183.886 24.7192 185.553 23.6205Z" fill="#F9F9F9"/>
<path d="M221.543 0.961301C220.926 1.64794 220.679 2.47192 220.679 3.43322V40.924C220.679 43.3959 221.049 45.5932 221.851 47.5158C222.592 49.4384 223.703 50.949 225.122 52.0476C226.541 53.1462 228.146 53.6269 229.935 53.6269H230.059C231.293 53.6269 232.28 53.3522 233.082 52.6656C233.823 52.0476 234.255 51.2236 234.255 50.1937C234.255 49.2324 233.946 48.4084 233.453 47.7217C232.959 47.1038 232.28 46.7604 231.478 46.7604H229.935C229.01 46.7604 228.269 46.2111 227.714 45.1125C227.097 44.0139 226.85 42.6406 226.85 40.924V3.43322C226.85 2.47192 226.541 1.64794 225.986 0.961301C225.369 0.343321 224.628 0 223.764 0C222.839 0 222.098 0.343321 221.543 0.961301Z" fill="#F9F9F9"/>
<path d="M246.24 17.0288C245.623 17.7154 245.376 18.5394 245.376 19.5694V50.125C245.376 51.155 245.623 51.979 246.24 52.6656C246.857 53.3522 247.598 53.6269 248.524 53.6269C249.449 53.6269 250.19 53.3522 250.807 52.6656C251.362 51.979 251.671 51.155 251.671 50.125V19.5694C251.671 18.5394 251.362 17.7154 250.807 17.0288C250.19 16.4108 249.449 16.0675 248.524 16.0675C247.598 16.0675 246.857 16.4108 246.24 17.0288Z" fill="#F9F9F9"/>
<path d="M291.731 18.2647C289.139 16.6168 286.239 15.7928 283.03 15.7928C279.698 15.7928 276.797 16.6168 274.206 18.2647C271.614 19.9127 269.577 22.1099 268.158 24.9938C266.677 27.8777 265.998 31.1736 265.998 34.8815C265.998 38.5894 266.677 41.8166 268.158 44.7005C269.577 47.5844 271.614 49.8503 274.206 51.4983C276.797 53.1462 279.698 53.9015 283.03 53.9015C286.301 53.9015 289.201 53.1462 291.793 51.4983C294.384 49.8503 296.359 47.5844 297.84 44.7005C299.26 41.8166 300 38.5894 300 34.8815C300 31.1736 299.26 27.8777 297.778 24.9938C296.297 22.1099 294.323 19.9127 291.731 18.2647ZM277.353 23.6205C279.019 22.5219 280.932 21.9726 283.03 21.9726C285.128 21.9726 286.979 22.5219 288.646 23.6205C290.312 24.7192 291.608 26.2985 292.533 28.2211C293.459 30.2123 293.953 32.4096 293.953 34.8815C293.953 37.3534 293.459 39.6193 292.533 41.542C291.608 43.4646 290.312 44.9752 288.646 46.0738C286.979 47.1724 285.128 47.7217 283.03 47.7217C280.932 47.7217 279.019 47.1724 277.353 46.0738C275.687 44.9752 274.391 43.4646 273.465 41.542C272.478 39.6193 272.046 37.3534 272.046 34.8815C272.046 32.4096 272.478 30.2123 273.465 28.2211C274.391 26.2985 275.687 24.7192 277.353 23.6205Z" fill="#F9F9F9"/>
</svg>
