<svg width="168" height="38" viewBox="0 0 168 38" fill="none" xmlns="http://www.w3.org/2000/svg">
<path d="M9.07812 5.94531C9.01562 8.03906 8.94531 10.1094 8.86719 12.1562C8.80469 14.2031 8.74219 16.1641 8.67969 18.0391C8.61719 19.8984 8.55469 21.6328 8.49219 23.2422C8.44531 24.8516 8.39844 26.2812 8.35156 27.5312C8.30469 28.7656 8.26562 29.7812 8.23438 30.5781C8.21875 31.375 8.21094 31.8828 8.21094 32.1016C8.21094 32.7891 8.25781 33.3438 8.35156 33.7656C8.46094 34.1719 8.60938 34.5 8.79688 34.75C9 34.9844 9.25 35.1562 9.54688 35.2656C9.84375 35.375 10.1797 35.4609 10.5547 35.5234L11.5625 35.6641V37C11.2188 36.9531 10.8047 36.8984 10.3203 36.8359C9.91406 36.8047 9.41406 36.7734 8.82031 36.7422C8.22656 36.6953 7.53906 36.6719 6.75781 36.6719C5.96094 36.6719 5.08594 36.6953 4.13281 36.7422C3.17969 36.7891 2.125 36.875 0.96875 37V35.6641C1.375 35.6328 1.72656 35.6016 2.02344 35.5703C2.33594 35.5391 2.625 35.5078 2.89062 35.4766C3.15625 35.4453 3.41406 35.4219 3.66406 35.4062C3.91406 35.3906 4.17969 35.375 4.46094 35.3594C4.50781 33.2812 4.5625 31.2266 4.625 29.1953C4.70312 27.1641 4.77344 25.2188 4.83594 23.3594C4.89844 21.5 4.96094 19.7656 5.02344 18.1562C5.08594 16.5469 5.13281 15.125 5.16406 13.8906C5.21094 12.6562 5.25 11.6406 5.28125 10.8438C5.3125 10.0469 5.32812 9.53125 5.32812 9.29688C5.32812 8.625 5.28125 8.07812 5.1875 7.65625C5.09375 7.23438 4.95312 6.90625 4.76562 6.67188C4.57812 6.42187 4.33594 6.25 4.03906 6.15625C3.75781 6.04687 3.42188 5.96094 3.03125 5.89844L2.02344 5.75781V4.39844C2.46094 4.46094 2.92969 4.52344 3.42969 4.58594C3.85156 4.63281 4.32812 4.67188 4.85938 4.70312C5.40625 4.73437 5.96094 4.75 6.52344 4.75C7.05469 4.75 7.5625 4.71875 8.04688 4.65625C8.54688 4.59375 9.07031 4.53125 9.61719 4.46875C10.1641 4.39063 10.7578 4.32031 11.3984 4.25781C12.0391 4.19531 12.7812 4.16406 13.625 4.16406C15.4062 4.16406 16.9453 4.41406 18.2422 4.91406C19.5391 5.39844 20.6016 6.05469 21.4297 6.88281C22.2734 7.71094 22.8906 8.67188 23.2812 9.76562C23.6875 10.8594 23.8906 12.0156 23.8906 13.2344C23.8906 14.6562 23.6094 15.9766 23.0469 17.1953C22.5 18.4141 21.75 19.4766 20.7969 20.3828C19.8594 21.2734 18.75 21.9766 17.4688 22.4922C16.2031 23.0078 14.8594 23.2656 13.4375 23.2656C12.9531 23.2656 12.5156 23.25 12.125 23.2188C11.75 23.1719 11.4219 23.1094 11.1406 23.0312L11.1875 21.5547C11.7031 21.6484 12.2266 21.6953 12.7578 21.6953C13.8516 21.6953 14.8516 21.5 15.7578 21.1094C16.6641 20.7031 17.4453 20.1484 18.1016 19.4453C18.7578 18.7266 19.2656 17.875 19.625 16.8906C19.9844 15.9062 20.1641 14.8359 20.1641 13.6797C20.1641 11.1797 19.4609 9.22656 18.0547 7.82031C16.6641 6.41406 14.5625 5.71094 11.75 5.71094C11.2188 5.71094 10.7422 5.73438 10.3203 5.78125C9.89844 5.8125 9.48438 5.86719 9.07812 5.94531ZM37.2031 17.3125C36.0469 17.3125 35.0234 17.5703 34.1328 18.0859C33.2422 18.6016 32.4922 19.2891 31.8828 20.1484C31.2891 21.0078 30.8359 22 30.5234 23.125C30.2109 24.2344 30.0547 25.3906 30.0547 26.5938C30.0547 27.7344 30.1953 28.8672 30.4766 29.9922C30.7578 31.1172 31.1875 32.1328 31.7656 33.0391C32.3594 33.9297 33.1094 34.6562 34.0156 35.2188C34.9375 35.7656 36.0312 36.0391 37.2969 36.0391C38.4219 36.0391 39.4219 35.8281 40.2969 35.4062C41.1719 34.9844 41.9141 34.3828 42.5234 33.6016C43.1328 32.8203 43.5938 31.8672 43.9062 30.7422C44.2344 29.6172 44.3984 28.3594 44.3984 26.9688C44.3984 25.9375 44.2578 24.8594 43.9766 23.7344C43.6953 22.5938 43.2578 21.5469 42.6641 20.5938C42.0859 19.6406 41.3438 18.8594 40.4375 18.25C39.5312 17.625 38.4531 17.3125 37.2031 17.3125ZM26.6094 27.8359C26.6094 26.3516 26.875 24.8984 27.4062 23.4766C27.9375 22.0547 28.7031 20.7891 29.7031 19.6797C30.7031 18.5703 31.9219 17.6797 33.3594 17.0078C34.7969 16.3203 36.4297 15.9766 38.2578 15.9766C39.9922 15.9766 41.4688 16.2188 42.6875 16.7031C43.9062 17.1875 44.8984 17.8516 45.6641 18.6953C46.4297 19.5234 46.9844 20.4922 47.3281 21.6016C47.6875 22.7109 47.8672 23.8906 47.8672 25.1406C47.8672 26.8281 47.5703 28.4219 46.9766 29.9219C46.3828 31.4219 45.5625 32.7344 44.5156 33.8594C43.4688 34.9688 42.2422 35.8516 40.8359 36.5078C39.4297 37.1484 37.9141 37.4688 36.2891 37.4688C34.4141 37.4688 32.8516 37.2031 31.6016 36.6719C30.3672 36.125 29.375 35.4062 28.625 34.5156C27.8906 33.625 27.3672 32.6016 27.0547 31.4453C26.7578 30.2891 26.6094 29.0859 26.6094 27.8359ZM57.9922 15.9766C57.9297 16.2734 57.8594 16.6172 57.7812 17.0078C57.7188 17.3828 57.6484 17.7734 57.5703 18.1797C57.5078 18.5859 57.4453 18.9922 57.3828 19.3984C57.3203 19.7891 57.2656 20.1484 57.2188 20.4766C58.0312 19.6484 58.8203 18.9531 59.5859 18.3906C60.3516 17.8125 61.0625 17.3438 61.7188 16.9844C62.375 16.625 62.9609 16.3672 63.4766 16.2109C64.0078 16.0547 64.4531 15.9766 64.8125 15.9766C65.25 15.9766 65.6094 16.0391 65.8906 16.1641C66.1719 16.2734 66.3906 16.4219 66.5469 16.6094C66.7188 16.7812 66.8359 16.9766 66.8984 17.1953C66.9766 17.4141 67.0156 17.6172 67.0156 17.8047C67.0156 18.2578 66.8906 18.6953 66.6406 19.1172C66.4062 19.5391 66.1328 19.9141 65.8203 20.2422C65.4297 19.7891 65 19.4688 64.5312 19.2812C64.0625 19.0938 63.5625 19 63.0312 19C62.5781 19 62.1094 19.0703 61.625 19.2109C61.1562 19.3359 60.6875 19.5156 60.2188 19.75C59.75 19.9844 59.2812 20.2656 58.8125 20.5938C58.3594 20.9062 57.9375 21.2578 57.5469 21.6484C57.4531 23.2266 57.3438 24.7656 57.2188 26.2656C57.1094 27.7656 57.0547 29.3281 57.0547 30.9531C57.0547 32.0156 57.0859 32.875 57.1484 33.5312C57.2109 34.1719 57.3438 34.6719 57.5469 35.0312C57.75 35.375 58.0469 35.6094 58.4375 35.7344C58.8438 35.8438 59.3906 35.8984 60.0781 35.8984H61.1328V37H60.6875C59.2188 37 57.9062 37.0547 56.75 37.1641C55.5938 37.2734 54.4531 37.4766 53.3281 37.7734C53.7031 35.2578 54 32.7422 54.2188 30.2266C54.4375 27.6953 54.5469 25.2188 54.5469 22.7969C54.5469 22.0469 54.5 21.3984 54.4062 20.8516C54.3281 20.2891 54.1562 19.8203 53.8906 19.4453C53.625 19.0703 53.2422 18.7891 52.7422 18.6016C52.2422 18.4141 51.5859 18.3203 50.7734 18.3203H50.2578V17.2188C51.0078 17.1562 51.6719 17.1094 52.25 17.0781C52.8281 17.0312 53.3984 16.9766 53.9609 16.9141C54.5391 16.8359 55.1406 16.7266 55.7656 16.5859C56.4062 16.4453 57.1484 16.2422 57.9922 15.9766ZM71.7969 16.4453C71.8281 15.4141 71.8594 14.3516 71.8906 13.2578C71.9375 12.1484 71.9609 10.9922 71.9609 9.78906L75.4531 9.01562C75.3125 10.0312 75.1875 11.1797 75.0781 12.4609C74.9844 13.7266 74.8906 15.0547 74.7969 16.4453C76.3438 16.4453 77.6562 16.3984 78.7344 16.3047C79.8281 16.2109 80.7344 16.1016 81.4531 15.9766L80.3984 18.2266H78.875C78.125 18.2266 77.4141 18.2266 76.7422 18.2266C76.0703 18.2266 75.3672 18.2109 74.6328 18.1797C74.5547 19.2266 74.4844 20.2656 74.4219 21.2969C74.3594 22.3125 74.3047 23.2969 74.2578 24.25C74.2109 25.1875 74.1719 26.0703 74.1406 26.8984C74.125 27.7266 74.1172 28.4531 74.1172 29.0781C74.1172 30.0938 74.1641 30.9531 74.2578 31.6562C74.3672 32.3594 74.5391 32.9297 74.7734 33.3672C75.0078 33.8047 75.3203 34.125 75.7109 34.3281C76.1016 34.5156 76.5938 34.6094 77.1875 34.6094C77.8594 34.6094 78.5781 34.4141 79.3438 34.0234C80.1094 33.6172 80.7812 33.0391 81.3594 32.2891L82.1328 33.1562C81.6172 33.7656 81.0859 34.3359 80.5391 34.8672C79.9922 35.3828 79.4219 35.8359 78.8281 36.2266C78.25 36.6016 77.6562 36.8984 77.0469 37.1172C76.4375 37.3516 75.8125 37.4688 75.1719 37.4688C74.3281 37.4688 73.6328 37.3125 73.0859 37C72.5547 36.7031 72.1328 36.2891 71.8203 35.7578C71.5078 35.2266 71.2891 34.6016 71.1641 33.8828C71.0547 33.1641 71 32.3828 71 31.5391C71 29.9141 71.0859 27.9922 71.2578 25.7734C71.4297 23.5391 71.5938 20.9609 71.75 18.0391C71.0938 17.9922 70.4375 17.9375 69.7812 17.875C69.125 17.7969 68.4141 17.6953 67.6484 17.5703L67.7422 16.4453H71.7969ZM87.4297 17.9922C86.7734 17.9453 86.1172 17.8906 85.4609 17.8281C84.8203 17.75 84.1641 17.6641 83.4922 17.5703L83.5859 16.4453H87.5234C87.5234 16.3672 87.5234 16.1875 87.5234 15.9062C87.5234 15.625 87.5234 15.2969 87.5234 14.9219C87.5391 14.5312 87.5469 14.125 87.5469 13.7031C87.5625 13.2656 87.5781 12.8516 87.5938 12.4609C87.625 11.7266 87.7578 10.9219 87.9922 10.0469C88.2266 9.17188 88.5469 8.29688 88.9531 7.42188C89.3594 6.54688 89.8359 5.69531 90.3828 4.86719C90.9453 4.03906 91.5547 3.3125 92.2109 2.6875C92.8828 2.04688 93.5938 1.53906 94.3438 1.16406C95.1094 0.773437 95.8906 0.578125 96.6875 0.578125C97.2656 0.578125 97.7031 0.71875 98 1C98.3125 1.28125 98.4688 1.66406 98.4688 2.14844C98.4688 2.50781 98.3984 2.875 98.2578 3.25C98.1172 3.625 97.9609 3.89844 97.7891 4.07031C97.3047 3.94531 96.8203 3.84375 96.3359 3.76562C95.8672 3.6875 95.4062 3.64844 94.9531 3.64844C94.2188 3.64844 93.5938 3.78906 93.0781 4.07031C92.5781 4.35156 92.1562 4.90625 91.8125 5.73438C91.4688 6.5625 91.1953 7.72656 90.9922 9.22656C90.7891 10.7266 90.6172 12.7031 90.4766 15.1562L90.4062 16.4453C91.4688 16.4453 92.5703 16.4297 93.7109 16.3984C94.8672 16.3516 96.0547 16.2422 97.2734 16.0703L96.2656 18.2266H94.7188C93.9688 18.2266 93.2344 18.2266 92.5156 18.2266C91.7969 18.2266 91.0781 18.2109 90.3594 18.1797L90.1016 22.6328C90.0078 24.2266 89.9531 25.7578 89.9375 27.2266C89.9219 28.6953 89.9141 29.9375 89.9141 30.9531C89.9141 31.9688 89.9375 32.7969 89.9844 33.4375C90.0312 34.0781 90.1484 34.5781 90.3359 34.9375C90.5391 35.2969 90.8438 35.5469 91.25 35.6875C91.6719 35.8281 92.25 35.8984 92.9844 35.8984H93.9922V37C93.2422 37.0312 92.5391 37.0547 91.8828 37.0703C91.2266 37.0859 90.5859 37.1172 89.9609 37.1641C89.3359 37.2109 88.7031 37.2734 88.0625 37.3516C87.4219 37.4453 86.7422 37.5859 86.0234 37.7734C86.2891 35.0078 86.5312 32.3594 86.75 29.8281C86.9844 27.2969 87.1484 24.875 87.2422 22.5625L87.4297 17.9922ZM108.734 17.3125C107.578 17.3125 106.555 17.5703 105.664 18.0859C104.773 18.6016 104.023 19.2891 103.414 20.1484C102.82 21.0078 102.367 22 102.055 23.125C101.742 24.2344 101.586 25.3906 101.586 26.5938C101.586 27.7344 101.727 28.8672 102.008 29.9922C102.289 31.1172 102.719 32.1328 103.297 33.0391C103.891 33.9297 104.641 34.6562 105.547 35.2188C106.469 35.7656 107.562 36.0391 108.828 36.0391C109.953 36.0391 110.953 35.8281 111.828 35.4062C112.703 34.9844 113.445 34.3828 114.055 33.6016C114.664 32.8203 115.125 31.8672 115.438 30.7422C115.766 29.6172 115.93 28.3594 115.93 26.9688C115.93 25.9375 115.789 24.8594 115.508 23.7344C115.227 22.5938 114.789 21.5469 114.195 20.5938C113.617 19.6406 112.875 18.8594 111.969 18.25C111.062 17.625 109.984 17.3125 108.734 17.3125ZM98.1406 27.8359C98.1406 26.3516 98.4062 24.8984 98.9375 23.4766C99.4688 22.0547 100.234 20.7891 101.234 19.6797C102.234 18.5703 103.453 17.6797 104.891 17.0078C106.328 16.3203 107.961 15.9766 109.789 15.9766C111.523 15.9766 113 16.2188 114.219 16.7031C115.438 17.1875 116.43 17.8516 117.195 18.6953C117.961 19.5234 118.516 20.4922 118.859 21.6016C119.219 22.7109 119.398 23.8906 119.398 25.1406C119.398 26.8281 119.102 28.4219 118.508 29.9219C117.914 31.4219 117.094 32.7344 116.047 33.8594C115 34.9688 113.773 35.8516 112.367 36.5078C110.961 37.1484 109.445 37.4688 107.82 37.4688C105.945 37.4688 104.383 37.2031 103.133 36.6719C101.898 36.125 100.906 35.4062 100.156 34.5156C99.4219 33.625 98.8984 32.6016 98.5859 31.4453C98.2891 30.2891 98.1406 29.0859 98.1406 27.8359ZM127.93 31.6328C127.93 32.5234 127.961 33.25 128.023 33.8125C128.102 34.375 128.25 34.8125 128.469 35.125C128.688 35.4219 129 35.625 129.406 35.7344C129.812 35.8438 130.344 35.8984 131 35.8984H132.008V37C131.258 37.0312 130.555 37.0547 129.898 37.0703C129.242 37.0859 128.602 37.1172 127.977 37.1641C127.352 37.2109 126.719 37.2734 126.078 37.3516C125.438 37.4453 124.758 37.5859 124.039 37.7734C124.227 35.8359 124.398 33.8516 124.555 31.8203C124.727 29.7734 124.883 27.7578 125.023 25.7734C125.164 23.7734 125.281 21.8359 125.375 19.9609C125.484 18.0859 125.57 16.3516 125.633 14.7578C125.711 13.1484 125.766 11.7109 125.797 10.4453C125.844 9.17969 125.867 8.15625 125.867 7.375C125.867 6.45313 125.82 5.70313 125.727 5.125C125.633 4.54687 125.461 4.09375 125.211 3.76562C124.961 3.4375 124.609 3.21875 124.156 3.10938C123.719 2.98438 123.148 2.92188 122.445 2.92188H121.578V1.82031C122.328 1.78906 123.031 1.74219 123.688 1.67969C124.359 1.60156 125.008 1.51562 125.633 1.42188C126.273 1.3125 126.914 1.1875 127.555 1.04688C128.195 0.90625 128.875 0.75 129.594 0.578125C129.406 2.5625 129.234 4.60938 129.078 6.71875C128.922 8.82812 128.781 10.9141 128.656 12.9766C128.531 15.0391 128.422 17.0391 128.328 18.9766C128.234 20.8984 128.156 22.6797 128.094 24.3203C128.047 25.9453 128.008 27.3906 127.977 28.6562C127.945 29.9219 127.93 30.9141 127.93 31.6328ZM141.078 15.9766C140.891 17.2109 140.727 18.4688 140.586 19.75C140.445 21.0312 140.32 22.3125 140.211 23.5938C140.117 24.8594 140.047 26.1172 140 27.3672C139.953 28.6016 139.93 29.7969 139.93 30.9531C139.93 32.0156 139.961 32.875 140.023 33.5312C140.086 34.1719 140.219 34.6719 140.422 35.0312C140.625 35.375 140.922 35.6094 141.312 35.7344C141.719 35.8438 142.266 35.8984 142.953 35.8984H144.008V37H143.633C142.164 37 140.836 37.0547 139.648 37.1641C138.477 37.2734 137.328 37.4766 136.203 37.7734C136.578 35.2422 136.859 32.7188 137.047 30.2031C137.25 27.6875 137.352 25.2188 137.352 22.7969C137.352 22.0469 137.305 21.3984 137.211 20.8516C137.133 20.2891 136.961 19.8203 136.695 19.4453C136.43 19.0703 136.047 18.7891 135.547 18.6016C135.047 18.4141 134.383 18.3203 133.555 18.3203H133.062V17.2188C134.641 17.1719 136.078 17.0312 137.375 16.7969C138.672 16.5625 139.906 16.2891 141.078 15.9766ZM139.273 10.4453C138.633 10.4453 138.094 10.25 137.656 9.85938C137.219 9.45312 137 8.83594 137 8.00781C137 7.64844 137.055 7.3125 137.164 7C137.273 6.67188 137.43 6.39062 137.633 6.15625C137.852 5.90625 138.109 5.71094 138.406 5.57031C138.703 5.42969 139.039 5.35938 139.414 5.35938C140.008 5.35938 140.523 5.57031 140.961 5.99219C141.398 6.41406 141.617 7.02344 141.617 7.82031C141.617 8.16406 141.562 8.5 141.453 8.82812C141.344 9.14062 141.188 9.42188 140.984 9.67188C140.797 9.90625 140.555 10.0938 140.258 10.2344C139.977 10.375 139.648 10.4453 139.273 10.4453ZM157.062 17.3125C155.906 17.3125 154.883 17.5703 153.992 18.0859C153.102 18.6016 152.352 19.2891 151.742 20.1484C151.148 21.0078 150.695 22 150.383 23.125C150.07 24.2344 149.914 25.3906 149.914 26.5938C149.914 27.7344 150.055 28.8672 150.336 29.9922C150.617 31.1172 151.047 32.1328 151.625 33.0391C152.219 33.9297 152.969 34.6562 153.875 35.2188C154.797 35.7656 155.891 36.0391 157.156 36.0391C158.281 36.0391 159.281 35.8281 160.156 35.4062C161.031 34.9844 161.773 34.3828 162.383 33.6016C162.992 32.8203 163.453 31.8672 163.766 30.7422C164.094 29.6172 164.258 28.3594 164.258 26.9688C164.258 25.9375 164.117 24.8594 163.836 23.7344C163.555 22.5938 163.117 21.5469 162.523 20.5938C161.945 19.6406 161.203 18.8594 160.297 18.25C159.391 17.625 158.312 17.3125 157.062 17.3125ZM146.469 27.8359C146.469 26.3516 146.734 24.8984 147.266 23.4766C147.797 22.0547 148.562 20.7891 149.562 19.6797C150.562 18.5703 151.781 17.6797 153.219 17.0078C154.656 16.3203 156.289 15.9766 158.117 15.9766C159.852 15.9766 161.328 16.2188 162.547 16.7031C163.766 17.1875 164.758 17.8516 165.523 18.6953C166.289 19.5234 166.844 20.4922 167.188 21.6016C167.547 22.7109 167.727 23.8906 167.727 25.1406C167.727 26.8281 167.43 28.4219 166.836 29.9219C166.242 31.4219 165.422 32.7344 164.375 33.8594C163.328 34.9688 162.102 35.8516 160.695 36.5078C159.289 37.1484 157.773 37.4688 156.148 37.4688C154.273 37.4688 152.711 37.2031 151.461 36.6719C150.227 36.125 149.234 35.4062 148.484 34.5156C147.75 33.625 147.227 32.6016 146.914 31.4453C146.617 30.2891 146.469 29.0859 146.469 27.8359Z" fill="white"/>
</svg>
