<svg class="border shadow-md dark:border-slate-700" viewBox="0 0 762.08 762.08" style="width: 762.08px; height: 762.08px;" xmlns="http://www.w3.org/2000/svg" preserveAspectRatio="none"><rect class="bg" id="bg" x="0" y="0" width="762.08" height="762.08" fill="#ffffff"></rect><g transform="rotate(0 381.04 381.04)"><path d="M -481.04 -46.21 S -413.00 -102.21
  0.00 -46.21 104.04 -84.31
  481.04 -46.21 711.56 -111.21
  962.08 -46.21 1077.12 -84.31
  1443.12 -46.21 h 110 V 962.08 H -481.04 Z" fill="#0F172A" id="-1"></path><path d="M -481.04 30.00 S -250.52 -8.10
  0.00 30.00 21.04 -8.10
  481.04 30.00 711.56 -21.00
  962.08 30.00 1192.60 -8.10
  1443.12 30.00 h 110 V 962.08 H -481.04 Z" fill="#111730" id="0"></path><path id="1" d="M -481.04 106.21 S -250.52 68.10
  0.00 106.21 230.52 68.10
  481.04 106.21 711.56 68.10
  962.08 106.21 997.12 68.10
  1443.12 106.21 h 110 V 962.08 H -481.04 Z" fill="#131736"></path><path id="2" d="M -481.04 182.42 S -259.00 120.42
  0.00 182.42 51.04 123.42
  481.04 182.42 582.08 144.31
  962.08 182.42 1185.12 144.31
  1443.12 182.42 h 110 V 962.08 H -481.04 Z" fill="#15173c"></path><path id="3" d="M -481.04 258.62 S -334.00 203.62
  0.00 258.62 36.04 220.52
  481.04 258.62 652.08 202.62
  962.08 258.62 1192.60 208.62
  1443.12 258.62 h 110 V 962.08 H -481.04 Z" fill="#171742"></path><path id="4" d="M -481.04 334.83 S -420.00 296.73
  0.00 334.83 230.52 264.83
  481.04 334.83 497.08 296.73
  962.08 334.83 1126.12 296.73
  1443.12 334.83 h 110 V 962.08 H -481.04 Z" fill="#191748"></path><path id="5" d="M -481.04 411.04 S -250.52 372.94
  0.00 411.04 230.52 338.04
  481.04 411.04 677.08 371.04
  962.08 411.04 1192.60 342.04
  1443.12 411.04 h 110 V 962.08 H -481.04 Z" fill="#1b174e"></path><path id="6" d="M -481.04 487.25 S -282.00 441.25
  0.00 487.25 230.52 449.14
  481.04 487.25 615.08 440.25
  962.08 487.25 969.12 426.25
  1443.12 487.25 h 110 V 962.08 H -481.04 Z" fill="#1d1754"></path><path id="7" d="M -481.04 563.46 S -478.00 512.46
  0.00 563.46 230.52 494.46
  481.04 563.46 711.56 511.46
  962.08 563.46 1192.60 498.46
  1443.12 563.46 h 110 V 962.08 H -481.04 Z" fill="#1f175a"></path><path id="8" d="M -481.04 639.66 S -250.52 601.56
  0.00 639.66 230.52 601.56
  481.04 639.66 709.08 572.66
  962.08 639.66 1136.12 601.56
  1443.12 639.66 h 110 V 962.08 H -481.04 Z" fill="#211760"></path><path id="9" d="M -481.04 715.87 S -250.52 677.77
  0.00 715.87 11.04 655.87
  481.04 715.87 681.08 677.77
  962.08 715.87 1124.12 659.87
  1443.12 715.87 h 110 V 962.08 H -481.04 Z" fill="#231766"></path></g></svg>